# xmcd CD database file
#
# Track frame offsets:
#	150
#	9365
#	29785
#	48442
#	69402
#	85925
#	103612
#	121452
#	143012
#	159437
#	170237
#	186030
#	207257
#	225467
#	240120
#	258230
#	278880
#
# Disc length: 3963 seconds
#
# Revision: 2
# Processed by: cddbd v1.5.1PL0 Copyright (c) Steve Scherf et al.
# Submitted via: CDex 1.51
#
DISCID=e10f7911
DTITLE=QB Finest - NAS ＆ ILL WILL RECORDS PRESENTS QUEENSBRIDGE THE ALBUM
DYEAR=2001
DGENRE=Rap/Hip-Hop
TTITLE0=Intro
TTITLE1=Da Bridge 2001
TTITLE2=We Live This
TTITLE3=Real Niggas
TTITLE4=Find Ya Wealth
TTITLE5=Straight Outta Q.B.
TTITLE6=Oochie Wally
TTITLE7=Our Way
TTITLE8=Fire
TTITLE9=Power Rap
TTITLE10=Street Glory
TTITLE11=We Break Bread
TTITLE12=Money
TTITLE13=Self Conscience
TTITLE14=Die 4
TTITLE15=Kids In Da PJ"s
TTITLE16=Teenage Thug
EXTD=YEAR: 2001
EXTT0=
EXTT1=
EXTT2=
EXTT3=
EXTT4=
EXTT5=
EXTT6=
EXTT7=
EXTT8=
EXTT9=
EXTT10=
EXTT11=
EXTT12=
EXTT13=
EXTT14=
EXTT15=
EXTT16=
PLAYORDER=
